<svg t="1593415457849" class="icon" viewBox="0 0 1024 1024" version="1.1" xmlns="http://www.w3.org/2000/svg" p-id="1843" width="200" height="200"><path d="M1023.825 172.941c-0.41-38.806-32.97-74.03-71.675-77.306-19.25-0.922-33.585 0-52.834-0.41 0-10.649 0.512-21.502-1.843-32.049A80.59 80.59 0 0 0 856.515 9.42c-24.37-12.799-53.653-12.39-77.613 1.024-19.762 11.263-33.79 30.206-38.91 52.323-2.56 10.649-1.843 21.605-2.047 32.458h-442.03c-0.205-10.751 0.41-21.605-2.048-32.151-5.222-23.14-20.376-42.903-41.366-53.961-24.063-12.492-52.63-12.082-76.385 0.921-20.274 11.161-34.712 30.514-39.729 53.142-2.355 10.547-1.945 21.298-1.843 32.05-17.304 0.306-39.626 0-56.828 0.102-11.365 0.204-22.629 2.969-32.766 8.089C18.124 116.318-0.102 145.193 0.102 174.989c0.103 257.108 0 514.217 0.103 771.325 0.512 33.278 24.37 64.405 56.213 74.03 13.823 4.71 28.466 3.481 42.8 3.584h845.253a79.212 79.212 0 0 0 58.773-26.52c13.209-14.54 20.581-33.483 20.684-53.04-0.103-257.21 0-514.318-0.103-771.427z m-253.627-93.28c0-20.376 14.54-39.625 34.097-45.36 22.731-7.372 49.558 4.506 58.774 26.725 3.583 7.577 4.3 16.178 4.095 24.472-0.102 45.974 0 92.051-0.102 138.025-0.103 15.564-7.68 30.206-20.479 39.217-15.87 10.956-36.656 11.673-53.244 1.74-14.744-8.703-23.755-25.802-23.243-42.902 0.102-47.203 0-94.611 0.102-141.916z m-603.503 0c-0.102-21.502 16.178-41.57 37.169-46.076 13.516-3.072 28.465-0.512 39.728 7.782 12.902 9.317 20.377 24.37 20.07 40.342 0 47.306 0.102 94.611 0 141.917-0.103 16.28-8.397 31.434-22.117 40.24-14.13 9.318-33.176 10.035-48.227 2.56-16.28-8.09-26.52-24.677-26.623-42.8 0-48.022-0.102-95.942 0-143.964z m790.063 873.104c-3.174 4.71-8.806 6.962-14.335 6.758H81.607c-9.522 0.921-18.123-7.578-17.407-17.1-0.102-187.788-0.102-375.577 0-563.467h895.63c0.102 185.228 0 370.354 0.102 555.583-0.205 6.143 0.717 13.004-3.174 18.226z m-775.216-167.31c0 24.984 0.103 50.07 0 74.951 49.149 0.308 98.4 0.103 147.65 0.103 0.103-25.086 0.308-50.173-0.102-75.259-49.25 0.205-98.4 0-147.548 0.205z m0-291.615c0.103 24.165 0 48.432 0.103 72.597 48.739-0.103 97.58 0.205 146.319-0.103l1.126-1.228c0.41-23.755 0.205-47.613 0.103-71.368-49.251 0.102-98.502-0.103-147.65 0.102z m147.65 219.12c0.103-23.857 0.206-47.714 0-71.572-49.148 0.103-98.399-0.102-147.65 0.103 0.103 23.755 0.103 47.612 0 71.367 49.149 0.308 98.4 0 147.65 0.103z m110.073-219.222c0 24.267-0.205 48.534 0.102 72.801 48.842-0.205 97.683 0 146.524-0.102 0-24.165-0.102-48.432 0-72.597-48.841-0.205-97.785 0-146.626-0.102zM840.03 712.96c0.103-23.858 0.205-47.715 0-71.573H695.861v71.47c48.022 0.205 96.045 0.103 144.17 0.103z m-400.765 72.391c-0.205 25.087-0.102 50.173 0 75.157 48.841 0.102 97.683 0 146.524 0 0.102-25.086 0.307-50.173-0.102-75.259-48.944 0.205-97.683 0.102-146.422 0.102zM695.86 493.738c0 24.267-0.102 48.534 0.103 72.801 47.92 0 95.737-0.205 143.657 0.103 1.024-24.268 0.307-48.637 0.41-72.904H695.86zM585.687 712.96c0.204-23.858 0.204-47.715 0-71.573-48.842 0.103-97.58 0-146.422 0a8338.22 8338.22 0 0 0 0 71.573c48.739 0.102 97.58 0 146.422 0z m110.174 72.391c-0.102 25.087 0 50.173 0 75.157 48.022 0.102 96.045 0.102 144.17 0 0.102-25.086 0.204-50.07-0.103-75.157-48.022 0.103-96.045 0.103-144.067 0z" fill="#bfbfbf" p-id="1844"></path></svg>